<?xml version="1.0" standalone="no"?>
<!DOCTYPE svg PUBLIC "-//W3C//DTD SVG 20010904//EN"
 "http://www.w3.org/TR/2001/REC-SVG-20010904/DTD/svg10.dtd">
<svg version="1.0" xmlns="http://www.w3.org/2000/svg"
 width="2281.000000pt" height="464.000000pt" viewBox="0 0 2281.000000 464.000000"
 preserveAspectRatio="xMidYMid meet">
<metadata>
Created by potrace 1.16, written by Peter Selinger 2001-2019
</metadata>
<g transform="translate(0.000000,464.000000) scale(0.100000,-0.100000)"
fill="#ffffff" stroke="none">
<path d="M16530 3239 c-157 -17 -334 -92 -441 -187 -135 -120 -207 -331 -180
-523 16 -118 44 -181 112 -254 101 -107 231 -165 551 -245 424 -106 539 -151
621 -239 27 -28 57 -71 68 -95 55 -126 23 -302 -74 -399 -120 -120 -419 -170
-692 -117 -198 39 -353 111 -490 228 l-70 60 -21 -32 c-11 -17 -35 -57 -53
-89 l-33 -58 23 -26 c43 -46 216 -153 303 -188 334 -135 710 -149 998 -38 238
93 367 279 368 530 0 153 -43 272 -135 371 -111 119 -249 177 -640 267 -395
91 -529 156 -589 285 -17 37 -21 65 -21 150 0 94 3 111 28 165 54 115 163 195
314 229 92 21 312 21 408 1 146 -31 282 -100 375 -191 l46 -44 53 91 c45 77
51 92 38 102 -140 112 -217 157 -337 195 -87 28 -153 40 -285 52 -122 11 -124
11 -245 -1z"/>
<path d="M1243 3230 c-325 -46 -566 -226 -653 -490 -30 -89 -37 -247 -17 -364
45 -257 215 -402 602 -515 165 -48 326 -102 365 -121 57 -29 85 -65 85 -112 0
-30 -6 -45 -24 -59 -116 -94 -508 -8 -789 174 l-71 46 -24 -42 c-37 -62 -259
-509 -255 -512 16 -16 177 -93 272 -130 235 -92 453 -135 691 -135 321 0 525
68 686 229 129 130 178 262 179 482 0 199 -44 322 -155 434 -111 111 -195 152
-546 263 -250 79 -304 101 -348 138 -57 48 -48 119 19 158 29 17 51 21 130 20
155 -1 292 -42 494 -147 55 -29 101 -47 103 -42 2 6 57 118 122 250 107 217
117 241 102 254 -30 25 -236 120 -326 150 -148 49 -275 71 -435 76 -80 2 -173
0 -207 -5z"/>
<path d="M20664 3221 c-304 -63 -548 -260 -702 -566 -126 -252 -148 -640 -51
-927 31 -95 93 -221 146 -301 62 -94 209 -240 301 -301 272 -180 633 -211 942
-81 181 76 356 230 449 396 l22 38 -90 46 c-50 25 -94 45 -98 45 -5 0 -24 -29
-43 -63 -19 -34 -70 -97 -112 -139 -123 -122 -285 -192 -473 -205 -398 -26
-731 241 -852 682 -25 92 -27 114 -27 285 0 172 2 191 27 275 36 121 126 297
187 368 106 124 248 216 390 254 91 25 320 25 410 0 176 -48 312 -153 395
-306 28 -50 54 -91 58 -91 6 0 147 91 167 107 2 2 -12 37 -32 76 -96 186 -251
309 -493 393 -73 25 -94 28 -255 30 -142 3 -192 0 -266 -15z"/>
<path d="M2570 2955 l0 -265 320 0 320 0 0 -850 0 -850 320 0 320 0 0 398 c0
218 0 601 0 850 l0 452 315 0 315 0 0 265 0 265 -955 0 -955 0 0 -265z"/>
<path d="M5305 3208 c-3 -7 -52 -141 -111 -298 -58 -157 -125 -339 -149 -405
-24 -66 -94 -255 -155 -420 -61 -165 -135 -365 -164 -445 -30 -80 -95 -256
-145 -392 -50 -136 -91 -250 -91 -253 0 -3 145 -4 322 -3 l322 3 65 212 66
213 302 0 c221 0 303 -3 303 -11 0 -7 30 -104 66 -215 l65 -204 325 0 c178 0
324 2 324 5 0 2 -4 14 -10 27 -5 13 -93 248 -195 523 -254 684 -326 878 -385
1035 -28 74 -80 214 -116 310 -36 96 -78 209 -94 250 l-28 75 -256 3 c-200 2
-258 0 -261 -10z m293 -768 c11 -41 54 -193 96 -337 42 -145 76 -264 76 -265
0 -2 -92 -4 -205 -5 -147 -2 -205 1 -205 9 0 6 31 111 69 232 38 122 84 274
102 339 18 64 36 114 40 110 4 -5 16 -42 27 -83z"/>
<path d="M6960 2105 l0 -1115 310 0 310 0 0 345 0 345 113 0 114 0 201 -336
c110 -185 202 -340 204 -345 2 -5 148 -8 355 -7 l352 3 -65 105 c-35 58 -105
173 -155 255 -50 83 -133 220 -185 305 l-94 155 27 19 c61 42 153 150 191 224
69 132 94 220 99 357 7 152 -16 255 -88 403 -42 86 -62 115 -127 180 -83 82
-153 129 -254 169 -120 49 -172 52 -760 53 l-548 0 0 -1115z m1040 563 c63
-32 103 -100 108 -183 8 -121 -47 -233 -126 -255 -20 -5 -119 -10 -219 -10
l-183 0 0 235 0 235 188 0 c175 0 191 -2 232 -22z"/>
<path d="M9065 2988 c-4 -128 -5 -246 -4 -263 l4 -30 323 -3 322 -2 0 -850 0
-850 310 0 310 0 0 850 0 850 315 0 315 0 0 265 0 265 -944 0 -944 0 -7 -232z"/>
<path d="M11312 2533 c4 -748 2 -716 64 -923 22 -76 96 -217 154 -293 113
-150 292 -264 499 -319 110 -29 372 -36 500 -14 328 57 587 264 702 561 16 41
41 117 55 168 25 88 27 108 34 447 4 195 5 514 2 708 l-5 352 -304 0 -303 0
-2 -227 c-1 -126 -2 -417 -3 -649 -2 -364 -5 -431 -20 -495 -25 -105 -61 -175
-119 -235 -72 -73 -140 -97 -261 -92 -149 7 -242 64 -305 189 -65 128 -64 108
-67 842 l-4 667 -310 0 -310 0 3 -687z"/>
<path d="M13820 3093 c0 -70 -2 -492 -4 -938 -2 -445 -1 -890 2 -987 l5 -178
309 0 308 0 0 345 0 345 203 0 c300 0 403 22 551 114 211 131 336 373 338 651
1 147 -16 226 -77 350 -77 159 -192 274 -349 350 -147 71 -132 69 -738 73
l-548 3 0 -128z m947 -414 c91 -23 143 -113 143 -245 0 -87 -38 -160 -100
-191 -40 -21 -58 -23 -207 -23 l-163 0 0 235 0 235 141 0 c77 0 161 -5 186
-11z"/>
<path d="M18551 3202 c-5 -10 -24 -54 -41 -98 -17 -43 -38 -92 -46 -109 -7
-16 -38 -91 -68 -165 -93 -233 -311 -767 -391 -960 -114 -275 -230 -556 -301
-727 l-62 -153 116 0 117 0 31 83 c17 45 80 202 139 350 l107 267 499 0 499 0
11 -27 c5 -16 69 -173 141 -350 l131 -323 118 0 119 0 -9 22 c-14 34 -174 419
-294 703 -57 138 -139 333 -180 435 -42 102 -117 284 -167 405 -51 121 -127
308 -170 415 -43 107 -84 207 -91 223 -12 27 -13 27 -105 27 -80 0 -95 -3
-103 -18z m205 -502 c51 -129 147 -368 212 -530 l119 -295 -430 -3 c-237 -1
-432 0 -435 3 -4 4 408 1046 426 1080 3 5 8 2 10 -5 2 -8 46 -121 98 -250z"/>
</g>
</svg>
